<?xml version="1.0" encoding="UTF-8"?>
<svg width="28px" height="28px" viewBox="0 0 28 28" version="1.1" xmlns="http://www.w3.org/2000/svg" xmlns:xlink="http://www.w3.org/1999/xlink">
    <!-- Generator: Sketch 54 (76480) - https://sketchapp.com -->
    <title>形状结合</title>
    <desc>Created with Sketch.</desc>
    <g id="ronance" stroke="none" stroke-width="1" fill="none" fill-rule="evenodd">
        <g id="首页优化05-29复制-2" transform="translate(-681.000000, -346.000000)" fill="#FFC01A">
            <g id="编组-7" transform="translate(681.000000, 346.000000)">
                <path d="M14,28 C6.2680135,28 -1.77635684e-15,21.7319865 -1.77635684e-15,14 C-1.77635684e-15,6.2680135 6.2680135,-1.77635684e-15 14,-1.77635684e-15 C21.7319865,-1.77635684e-15 28,6.2680135 28,14 C28,21.7319865 21.7319865,28 14,28 Z M12.2445161,5 L12.8558065,17.445871 L14.9341935,17.445871 L15.5454839,5 L12.2445161,5 Z M13.8827742,18.7662581 C13.3448387,18.7662581 12.9047097,18.9374194 12.5623871,19.2797419 C12.1711613,19.6220645 12,20.0621935 12,20.600129 C12,21.1380645 12.1711613,21.5781935 12.5623871,21.9205161 C12.9047097,22.2628387 13.3448387,22.4584516 13.8827742,22.4584516 C14.4207097,22.4584516 14.8608387,22.2872903 15.2520645,21.9449677 C15.5943871,21.6026452 15.79,21.1380645 15.79,20.600129 C15.79,20.0621935 15.5943871,19.6220645 15.2520645,19.2797419 C14.8852903,18.9374194 14.4207097,18.7662581 13.8827742,18.7662581 Z" id="形状结合"></path>
            </g>
        </g>
    </g>
</svg>